<?xml version="1.0" standalone="no"?>
<!DOCTYPE svg PUBLIC "-//W3C//DTD SVG 20010904//EN"
 "http://www.w3.org/TR/2001/REC-SVG-20010904/DTD/svg10.dtd">
<svg version="1.0" xmlns="http://www.w3.org/2000/svg"
 width="512.000000pt" height="512.000000pt" viewBox="0 0 512.000000 512.000000"
 preserveAspectRatio="xMidYMid meet">

<g transform="translate(0.000000,512.000000) scale(0.100000,-0.100000)"
fill="#000000" stroke="none">
<path d="M295 4523 c-96 -20 -180 -74 -230 -147 -69 -102 -65 8 -65 -1816 0
-1824 -4 -1714 65 -1816 38 -55 95 -100 165 -130 44 -19 102 -19 2304 -22
2508 -3 2329 -7 2433 64 28 19 67 59 87 87 70 103 66 -8 66 1817 0 1825 4
1714 -66 1817 -20 28 -59 67 -87 87 -104 71 73 66 -2412 65 -1232 -1 -2249 -3
-2260 -6z m4323 -262 c-3 -7 -618 -525 -1666 -1402 -144 -121 -267 -219 -271
-217 -12 4 -1919 1607 -1926 1619 -4 5 729 9 1930 9 1109 0 1935 -4 1933 -9z
m-3257 -1066 c595 -500 1100 -922 1122 -937 45 -31 93 -36 135 -14 15 8 479
395 1032 859 l1005 845 3 -694 c1 -382 1 -1006 0 -1388 l-3 -694 -374 315
c-206 173 -387 321 -402 329 -66 34 -145 3 -173 -67 -21 -52 -9 -103 36 -146
18 -17 222 -190 453 -383 231 -194 422 -356 423 -361 2 -5 -884 -9 -2060 -9
-1951 1 -2062 2 -2043 18 12 9 314 263 672 564 671 565 673 566 673 637 0 33
-32 85 -65 107 -38 25 -109 23 -144 -4 -23 -17 -1298 -1084 -1374 -1150 -16
-14 -17 60 -17 1537 0 962 4 1551 9 1549 6 -1 497 -412 1092 -913z"/>
<path d="M3346 2210 c-91 -28 -135 -145 -83 -220 36 -54 71 -74 127 -74 56 0
91 20 128 74 73 107 -45 259 -172 220z"/>
</g>
</svg>
