<svg id="visual" viewBox="0 0 900 600" width="900" height="600" xmlns="http://www.w3.org/2000/svg" xmlns:xlink="http://www.w3.org/1999/xlink" version="1.1"><rect x="0" y="0" width="900" height="600" fill="#001220"></rect><defs><linearGradient id="grad1_0" x1="33.3%" y1="100%" x2="100%" y2="0%"><stop offset="20%" stop-color="#46a79b" stop-opacity="1"></stop><stop offset="80%" stop-color="#46a79b" stop-opacity="1"></stop></linearGradient></defs><defs><linearGradient id="grad1_1" x1="33.3%" y1="100%" x2="100%" y2="0%"><stop offset="20%" stop-color="#46a79b" stop-opacity="1"></stop><stop offset="80%" stop-color="#0c5766" stop-opacity="1"></stop></linearGradient></defs><defs><linearGradient id="grad1_2" x1="33.3%" y1="100%" x2="100%" y2="0%"><stop offset="20%" stop-color="#001220" stop-opacity="1"></stop><stop offset="80%" stop-color="#0c5766" stop-opacity="1"></stop></linearGradient></defs><defs><linearGradient id="grad2_0" x1="0%" y1="100%" x2="66.7%" y2="0%"><stop offset="20%" stop-color="#46a79b" stop-opacity="1"></stop><stop offset="80%" stop-color="#46a79b" stop-opacity="1"></stop></linearGradient></defs><defs><linearGradient id="grad2_1" x1="0%" y1="100%" x2="66.7%" y2="0%"><stop offset="20%" stop-color="#0c5766" stop-opacity="1"></stop><stop offset="80%" stop-color="#46a79b" stop-opacity="1"></stop></linearGradient></defs><defs><linearGradient id="grad2_2" x1="0%" y1="100%" x2="66.7%" y2="0%"><stop offset="20%" stop-color="#0c5766" stop-opacity="1"></stop><stop offset="80%" stop-color="#001220" stop-opacity="1"></stop></linearGradient></defs><g transform="translate(900, 600)"><path d="M-297.5 0C-290.6 -53.6 -283.7 -107.2 -257.6 -148.7C-231.5 -190.3 -186.1 -219.7 -140 -242.5C-93.9 -265.3 -46.9 -281.4 0 -297.5L0 0Z" fill="#073344"></path><path d="M-198.3 0C-193.7 -35.7 -189.1 -71.5 -171.7 -99.2C-154.3 -126.8 -124.1 -146.5 -93.3 -161.7C-62.6 -176.8 -31.3 -187.6 0 -198.3L0 0Z" fill="#217e84"></path><path d="M-99.2 0C-96.9 -17.9 -94.6 -35.7 -85.9 -49.6C-77.2 -63.4 -62 -73.2 -46.7 -80.8C-31.3 -88.4 -15.6 -93.8 0 -99.2L0 0Z" fill="#46a79b"></path></g><g transform="translate(0, 0)"><path d="M297.5 0C290.6 53.6 283.7 107.2 257.6 148.7C231.5 190.3 186.1 219.7 140 242.5C93.9 265.3 46.9 281.4 0 297.5L0 0Z" fill="#073344"></path><path d="M198.3 0C193.7 35.7 189.1 71.5 171.7 99.2C154.3 126.8 124.1 146.5 93.3 161.7C62.6 176.8 31.3 187.6 0 198.3L0 0Z" fill="#217e84"></path><path d="M99.2 0C96.9 17.9 94.6 35.7 85.9 49.6C77.2 63.4 62 73.2 46.7 80.8C31.3 88.4 15.6 93.8 0 99.2L0 0Z" fill="#46a79b"></path></g></svg>