<svg id="visual" viewBox="0 0 900 600" width="900" height="600" xmlns="http://www.w3.org/2000/svg" xmlns:xlink="http://www.w3.org/1999/xlink" version="1.1"><path d="M0 55L82 49L164 43L245 91L327 91L409 67L491 43L573 61L655 91L736 37L818 61L900 91L900 0L818 0L736 0L655 0L573 0L491 0L409 0L327 0L245 0L164 0L82 0L0 0Z" fill="#f7caca"></path><path d="M0 121L82 151L164 181L245 223L327 169L409 223L491 211L573 139L655 163L736 163L818 181L900 235L900 89L818 59L736 35L655 89L573 59L491 41L409 65L327 89L245 89L164 41L82 47L0 53Z" fill="#f2c8da"></path><path d="M0 211L82 205L164 247L245 301L327 289L409 325L491 277L573 205L655 259L736 223L818 235L900 325L900 233L818 179L736 161L655 161L573 137L491 209L409 221L327 167L245 221L164 179L82 149L0 119Z" fill="#e2caeb"></path><path d="M0 397L82 427L164 415L245 427L327 439L409 445L491 409L573 307L655 475L736 397L818 475L900 439L900 323L818 233L736 221L655 257L573 203L491 275L409 323L327 287L245 299L164 245L82 203L0 209Z" fill="#c8cff6"></path><path d="M0 601L82 601L164 601L245 601L327 601L409 601L491 601L573 601L655 601L736 601L818 601L900 601L900 437L818 473L736 395L655 473L573 305L491 407L409 443L327 437L245 425L164 413L82 425L0 395Z" fill="#abd4f6"></path></svg>